<?xml version="1.0" encoding="utf-8"?>
<!DOCTYPE svg PUBLIC "-//W3C//DTD SVG 20010904//EN" "http://www.w3.org/TR/2001/REC-SVG-20010904/DTD/svg10.dtd">
<svg version="1.0" xmlns="http://www.w3.org/2000/svg" width="2548px" height="2549px" viewBox="0 0 2548 2549" preserveAspectRatio="xMidYMid meet">
 <g fill="#2e2e2e">
  <path d="M0 1274.6 l0 -1274.6 1274 0 1274 0 0 1274.6 0 1274.6 -1274 0 -1274 0 0 -1274.6z"/>
 </g>
 <g fill="#f8ec36">
  <path d="M886.9 2263.5 c-8.2 -8.7 -18.4 -19.6 -22.8 -24.6 -4.5 -4.8 -11.2 -12 -14.8 -15.8 -3.7 -3.8 -6.8 -7.1 -6.8 -7.5 0 -0.3 -2 -2.4 -4.5 -4.8 -2.4 -2.3 -4.5 -4.5 -4.5 -4.8 0 -0.4 -1.9 -2.5 -4.1 -5 -2.3 -2.3 -7.4 -7.9 -11.2 -12.4 -3.8 -4.6 -8.5 -9.9 -10.5 -11.9 -2 -2 -3.6 -4.2 -3.6 -4.8 0 -0.6 -0.9 -1.1 -1.9 -1.1 -1 0 -1.9 -0.6 -1.9 -1.3 0 -0.8 -5.5 -7.6 -12.1 -15.3 -6.6 -7.8 -12.7 -14.9 -13.6 -16.1 -0.9 -1 -2.5 -2.9 -3.7 -4.1 -1 -1.1 -6.8 -7.9 -12.5 -14.9 -5.9 -7 -11.5 -13.4 -12.4 -14.1 -1 -0.8 -1.8 -1.9 -1.8 -2.4 0 -0.5 -3.3 -4.7 -7.3 -9.6 -12.4 -14.4 -17.5 -20.8 -19.6 -24.2 -1.1 -1.8 -3.8 -5.1 -6 -7.3 -2.3 -2.2 -4.1 -4.6 -4.1 -5.4 0 -0.8 -0.5 -1.4 -1 -1.4 -0.5 0 -3.2 -3.2 -6 -7 -2.8 -3.8 -5.5 -7 -6 -7 -0.6 0 -1 -0.9 -1 -1.9 0 -0.9 -0.8 -2.3 -1.5 -2.8 -2.5 -1.7 -12.5 -14 -12.5 -15.7 0 -0.8 -0.9 -1.7 -1.9 -2 -1 -0.5 -1.9 -1.5 -1.9 -2.4 0 -0.8 -1.1 -2.5 -2.7 -4 -1.4 -1.3 -5.1 -6 -8.3 -10.3 -3.2 -4.5 -6.2 -8 -7 -8 -0.6 0 -1.1 -0.5 -1.1 -1.3 0 -2 -7 -11.9 -11.7 -16.3 -1.3 -1.1 -2.3 -2.5 -2.3 -3.2 0 -1.3 -6.6 -10.3 -7.9 -10.8 -0.6 -0.3 -1 -1 -1 -1.7 0 -0.6 -0.9 -2.2 -2 -3.3 -2 -2.4 -9.2 -12.1 -11.3 -15.6 -0.6 -1.1 -1.7 -2.3 -2.2 -2.7 -0.8 -0.6 -6.6 -8.9 -16.1 -23.2 -1.8 -2.7 -3.7 -4.8 -4.3 -4.8 -0.5 0 -1 -0.5 -1 -1.3 0 -0.6 -1.9 -3.8 -4.1 -6.9 -10.6 -14.4 -15 -20.9 -15 -22.2 0 -0.6 -0.9 -1.5 -1.9 -2 -1 -0.4 -1.9 -1.3 -1.9 -2 0 -0.8 -2.2 -4.3 -4.7 -8 -4.2 -6 -8.4 -12.2 -11.9 -17.5 -0.6 -1 -3.6 -5.2 -6.4 -9.3 -2.8 -4.1 -5.1 -7.9 -5.1 -8.5 0 -0.8 -0.5 -1.3 -1.3 -1.3 -0.6 0 -1.3 -0.8 -1.3 -1.8 0 -1 -0.4 -2 -0.9 -2.3 -1.4 -0.5 -10.6 -14.8 -10.6 -16.2 0 -0.8 -0.8 -1.8 -1.8 -2.3 -0.9 -0.5 -3.1 -3.6 -4.7 -6.8 -1.8 -3.2 -4.8 -8.3 -6.9 -11.3 -2.2 -3.1 -4.8 -7.1 -6 -8.9 -1.3 -1.8 -2.8 -4.6 -3.4 -6.1 -0.6 -1.4 -1.8 -3.1 -2.5 -3.4 -0.8 -0.5 -2.3 -2.8 -3.4 -5.2 -1.1 -2.4 -2.5 -4.5 -3.2 -4.5 -0.6 0 -1.1 -1.1 -1.1 -2.5 0 -1.4 -0.5 -2.5 -1 -2.5 -0.6 0 -1.8 -1.3 -2.5 -2.8 -0.8 -1.7 -2.9 -5.2 -4.7 -8 -1.8 -2.8 -3.6 -6 -4.1 -7 -0.6 -1 -6.8 -11.7 -13.9 -23.6 -19.6 -33 -24 -40.5 -25.1 -43.3 -0.5 -1.4 -1.4 -2.8 -1.9 -3.2 -0.5 -0.4 -2.3 -3.4 -4.1 -7 -3.2 -6.2 -7.8 -13.9 -10.1 -16.8 -0.8 -0.8 -1.7 -2.9 -2.2 -4.7 -0.4 -1.8 -1.5 -3.8 -2.5 -4.7 -1 -0.8 -1.8 -2 -1.8 -2.7 0 -0.8 -2 -4.6 -4.5 -8.7 -2.4 -4.1 -4.5 -8 -4.5 -8.8 0 -0.8 -1.1 -2.5 -2.5 -4 -1.4 -1.4 -2.5 -3.7 -2.5 -5 0 -1.4 -0.5 -2.8 -1.1 -3.2 -0.5 -0.4 -2.9 -4.6 -5.4 -9.3 -2.4 -4.7 -5 -9 -5.9 -9.7 -0.8 -0.5 -1.8 -2.7 -2.3 -4.7 -0.5 -2.2 -1.4 -3.8 -2 -3.8 -0.6 0 -1.1 -1 -1.1 -2.4 0 -1.3 -1.1 -3.8 -2.5 -5.6 -1.4 -1.8 -2.5 -4 -2.5 -5 0 -1 -1.1 -3.1 -2.5 -4.6 -1.4 -1.5 -2.5 -3.3 -2.5 -4.1 0 -1.4 -6.5 -14.3 -7.8 -15.3 -0.4 -0.4 -1.1 -2.2 -1.5 -4.1 -0.5 -1.9 -1.7 -4.2 -2.5 -5.1 -1.9 -2.2 -6 -10.8 -6 -13 0 -0.9 -1.1 -2.7 -2.5 -4 -1.4 -1.3 -2.5 -3.1 -2.5 -4 0 -0.9 -0.8 -3.2 -1.8 -5.2 -1 -1.9 -3.4 -7 -5.4 -11.2 -1.9 -4.2 -4.2 -8.5 -5.1 -9.7 -1 -1 -1.9 -3.1 -2.2 -4.5 -0.8 -3.6 -5.9 -14.3 -7.3 -15.2 -0.8 -0.4 -1.3 -1.5 -1.3 -2.5 0 -0.9 -2.2 -6.5 -5 -12.4 -2.7 -5.7 -5.4 -11.9 -5.7 -13.4 -0.5 -1.7 -1.5 -2.9 -2.2 -2.9 -0.6 0 -1.1 -1 -1.1 -2.2 0 -1.3 -1.1 -4 -2.5 -6.1 -1.4 -2 -2.5 -5.1 -2.5 -6.5 0 -1.5 -0.9 -3.4 -1.9 -4.3 -1 -0.9 -1.9 -2.4 -1.9 -3.4 0 -1.1 -1.1 -4.1 -2.4 -6.6 -1.3 -2.5 -4 -8 -5.9 -12.2 -1.8 -4.2 -3.8 -8.7 -4.6 -9.8 -0.6 -1.3 -1.1 -2.8 -1.1 -3.6 0 -0.8 -1.1 -4.1 -2.7 -7.4 -3.1 -6.8 -3.4 -7.9 -8.2 -19.4 -1.9 -4.6 -4.5 -10.6 -5.9 -13.4 -1.3 -2.8 -2.4 -6 -2.4 -7 -0.1 -1 -0.9 -3.1 -1.9 -4.3 -1 -1.4 -1.9 -3.3 -1.9 -4.2 0 -0.9 -1.1 -4.1 -2.4 -7.1 -2.5 -5.5 -9.8 -24.1 -14.3 -36.6 -1.4 -3.8 -3.7 -9.3 -5 -12.1 -1.3 -2.8 -2.7 -7 -3.2 -9.2 -0.5 -2.3 -1.4 -4.5 -2 -4.8 -0.6 -0.5 -1.1 -2 -1.1 -3.6 0 -1.5 -1.1 -5 -2.5 -7.6 -1.4 -2.5 -2.5 -5.6 -2.5 -6.8 0 -1 -0.6 -3.2 -1.5 -4.7 -1.7 -3.1 -13 -34.9 -15.8 -44.2 -2 -7 -5.5 -17.1 -7.6 -22.3 -0.8 -2 -2.8 -8.2 -4.3 -13.4 -1.5 -5.2 -5.1 -16.4 -7.6 -24.9 -2.7 -8.4 -6.5 -20.4 -8.4 -26.8 -1.9 -6.2 -4 -12 -4.5 -12.7 -0.5 -0.6 -1 -3.3 -1.3 -5.7 -0.3 -2.4 -0.8 -5.1 -1.4 -5.9 -1 -1.4 -4.2 -12.4 -6.8 -23.5 -0.9 -3.8 -2.5 -9.6 -3.6 -12.7 -1.7 -4.8 -7 -24.3 -7.8 -28.7 -0.1 -0.6 -0.9 -3.3 -1.8 -5.7 -0.8 -2.4 -1.7 -6.2 -1.9 -8.5 -0.4 -2.2 -1 -4.7 -1.5 -5.4 -0.8 -1.4 -1.1 -2.7 -3.2 -13.3 -0.6 -3.4 -1.7 -6.8 -2 -7.5 -0.5 -0.8 -1.7 -4.8 -2.5 -9.2 -0.9 -4.3 -2.3 -10.3 -3.1 -13.5 -0.9 -3.2 -2 -7.9 -2.7 -10.5 -0.6 -2.7 -1.7 -7 -2.4 -9.6 -0.6 -2.7 -1.5 -6.9 -1.9 -9.3 -0.8 -4.7 -1.5 -8.3 -1.9 -8.3 -0.1 0 -0.4 -1.4 -0.8 -3.2 -0.3 -1.8 -1.7 -8 -3.1 -14 -3.4 -14.4 -6.4 -27.8 -7.1 -32.5 -1.4 -9 -4.7 -26.3 -7 -35.6 -1.3 -5.6 -2.4 -12 -2.4 -14 0 -2.2 -1.1 -8.4 -2.5 -14 -1.4 -5.5 -2.5 -11.3 -2.5 -13.1 0 -1.7 -0.8 -7.1 -1.8 -12.2 -1 -5.1 -2.2 -11.7 -2.5 -14.9 -0.4 -3.2 -1.5 -10.1 -2.5 -15.3 -1 -5.2 -1.9 -12.1 -2.2 -15.3 -0.1 -3.2 -0.8 -6.6 -1.4 -7.8 -0.5 -1.3 -1.5 -7.5 -2.2 -14 -0.6 -6.6 -1.5 -13.4 -1.9 -15.2 -1.8 -7.6 -3.2 -18 -4 -28.6 -0.4 -6.2 -1 -11.9 -1.3 -12.4 -0.9 -1.3 -1.8 -7.8 -2.5 -18.4 -0.4 -4.8 -1.3 -12.1 -1.9 -15.9 -1.1 -7 -1.9 -14.8 -3.2 -33.8 -0.4 -5.6 -1 -11.1 -1.3 -12.2 -0.4 -1.1 -0.9 -4.2 -1.1 -7 -1.5 -15.9 -2 -21.4 -2.7 -32.4 -0.4 -6.6 -1 -14.5 -1.3 -17.3 -0.4 -2.9 -0.8 -9.2 -1.1 -14 -0.4 -4.8 -0.9 -13.4 -1.3 -19 -0.4 -5.6 -1 -17.1 -1.4 -25.5 -0.4 -8.4 -1 -20.9 -1.4 -27.7 l-0.8 -12.5 206.1 0 c195.7 0 206 0.1 205.3 2.3 -0.4 1.1 -1 5.2 -1.4 9 -0.5 3.8 -1.1 8 -1.4 9.6 -0.3 1.5 -0.9 8.4 -1.3 15.4 -0.3 7 -0.9 15.9 -1.1 19.8 -3.3 42.3 -3.3 148.5 0 192.5 0.3 3.8 0.8 14.1 1.3 22.9 0.4 8.8 1 18 1.4 20.4 0.3 2.4 0.9 7 1.1 10.2 0.3 3.2 0.9 8.3 1.1 11.5 0.4 3.2 1 11.2 1.5 17.8 0.4 6.6 1 12.5 1.3 13 0.3 0.4 0.8 4.5 1.1 8.9 1.4 17.1 1.9 21.2 3.7 31 1 5.6 2.2 14.3 2.5 19.1 0.4 5 1 10.2 1.4 11.7 0.4 1.7 0.9 4.2 1.3 5.6 0.3 1.5 0.9 6 1.3 9.9 0.8 7.4 1.9 15.2 2.4 17.3 0.9 3.2 2 10.7 2.5 15.9 0.3 3.2 1.4 10.1 2.4 15.3 1.1 5.2 2.7 13.6 3.4 18.5 0.8 5 2 10.7 2.7 12.7 0.5 2.2 1.1 6.2 1.4 9.3 0.1 3.1 0.6 5.7 1.1 6.1 0.5 0.3 1.3 3.6 1.8 7.3 0.8 6.8 4.3 24.3 7.9 39.1 2 8.4 2.2 9.7 3.4 18.4 0.5 2.7 1.1 5.5 1.5 6.1 0.4 0.6 1 3.1 1.4 5.2 0.8 5.2 1.3 7.6 3.4 16.2 1 3.8 3.1 12.5 4.6 19.1 1.5 6.6 3.1 13 3.3 14 0.3 1 1.1 4.8 1.9 8.3 2.2 9.9 4.1 16.4 5.2 17.7 0.5 0.8 1 2.9 1 4.8 0 2 0.9 5.7 1.9 8.3 1 2.4 1.9 5.7 1.9 7.3 0.1 1.4 0.9 5 2 7.8 1 2.8 2.2 7.1 2.5 9.6 0.4 2.4 1.9 7.4 3.2 10.8 1.3 3.6 2.4 7.6 2.4 9.3 0 1.7 0.6 4.2 1.4 5.6 0.8 1.4 1.7 4.5 2 6.6 0.4 2.2 1.5 6.2 2.5 9 1 2.8 2.3 7.1 2.9 9.6 0.5 2.4 1.9 7 2.9 10.2 1.1 3.2 2.3 7.1 2.7 8.9 1.5 6.6 4.5 16.4 5.9 19 0.8 1.5 0.9 2.7 0.4 2.7 -0.5 0 -0.3 0.6 0.6 1.5 0.9 0.9 1.5 3.1 1.5 4.8 0 1.8 0.5 3.8 1.1 4.6 1 1 6.4 17.6 7.3 22.2 0.6 3.1 15.2 46.7 19 56.7 1.9 5 4 11.2 4.6 14 0.8 2.7 2 6.8 2.9 8.9 1 2 3.1 7.5 4.6 12.1 1.5 4.6 3.6 10.1 4.6 12.4 1 2.2 1.8 4.7 1.8 5.6 0 0.9 1 4 2.3 6.8 2.5 5.7 3.8 9 9.3 24.3 2 5.6 3.7 10.3 3.8 10.6 0.1 0.1 0.3 0.6 0.5 1.3 0.4 1.7 3.2 8.5 4.5 11.1 0.8 1.4 3.1 7.4 5.2 13.4 5.6 15.4 9.4 25.5 11.3 30 1 2.2 1.8 4.1 1.9 4.5 0.5 1.5 4.7 11.2 6.2 14.7 1 2.2 3.1 7.3 4.7 11.5 1.7 4.2 3.4 8.2 4 8.9 0.5 0.6 1 2 1 3.2 0 1.1 1.4 4.8 3.1 8.4 1.7 3.4 5.1 11.5 7.8 17.7 5.2 12.9 6.5 15.7 8.2 18.5 0.6 1 2.4 5.4 4.1 9.6 1.5 4.2 4.5 11.1 6.4 15.3 1.9 4.2 3.8 8.9 4.2 10.5 0.5 1.4 1.7 3.4 2.7 4.2 1 0.9 1.9 2.7 1.9 4.1 0 1.4 1.1 4 2.5 5.7 1.4 1.8 2.5 4.6 2.5 6.1 0 1.5 0.9 3.6 1.9 4.5 1 0.9 1.9 2.4 1.9 3.4 0 1 1.1 4 2.4 6.5 1.4 2.5 4.6 9.3 7.1 14.9 2.5 5.6 6.1 13.1 7.8 16.6 1.7 3.6 3.1 6.9 3.1 7.4 0 0.6 0.9 1.9 1.9 2.9 1 1.1 1.9 3.1 1.9 4.2 0 1.3 0.9 3.1 1.9 4 1 0.9 1.9 2.4 1.9 3.4 0 0.9 2.3 6.1 5.1 11.3 2.8 5.4 5.1 10.5 5.1 11.3 0 0.9 0.9 2.3 1.9 3.2 1 0.9 1.9 2.9 1.9 4.6 0 1.5 0.5 3.3 1.3 3.7 1.3 0.8 7.6 13.5 7.6 15.2 0 0.5 1.1 2.4 2.5 4.2 1.4 1.8 2.5 4.3 2.5 5.6 0 1.1 0.5 2.4 1 2.7 0.9 0.3 10.3 19 13.4 26.5 0.5 1 2.3 4.2 4 7 4.8 8 9.7 17.3 9.7 18.7 0 0.6 1.1 2.7 2.5 4.5 1.4 1.8 2.5 4.1 2.5 5.1 0 1 0.6 2.4 1.4 3.3 1.4 1.5 5 8.3 14.5 27 7.1 13.9 17.7 33.5 18.9 34.5 0.5 0.5 2.4 3.8 4.1 7.4 1.8 3.6 4.8 9.4 7 12.9 2 3.6 5.1 9.3 7 12.7 1.8 3.6 4.6 8.7 6.2 11.5 2.7 4.6 5.7 10.2 14.1 25.5 1.5 2.8 4.6 8 6.8 11.6 2.3 3.6 4.1 7.1 4.1 7.9 0 0.6 0.9 1.5 1.9 2 1 0.4 1.9 1.8 1.9 3.1 0 1.3 0.6 2.9 1.4 3.7 1.7 1.7 4.1 5.7 6.6 11.3 1 2.2 2.5 4.3 3.2 4.8 0.8 0.4 2.5 3.4 4.2 6.9 1.5 3.3 3.2 6.2 3.6 6.6 0.4 0.4 1.7 2.4 2.7 4.5 1 2.2 3.7 6.5 6 9.8 2.3 3.3 4.2 7 4.2 8 0 1 0.6 1.9 1.3 1.9 0.8 0 2 1.5 2.8 3.6 0.9 1.9 2.2 4.3 3.1 5.4 0.8 1 3.1 4.8 5 8.5 1.8 3.6 4.2 7.3 5.2 8.2 1 0.8 1.8 2.5 1.8 3.8 0 1.4 0.5 2.4 1.3 2.4 0.6 0 2 2 3.1 4.5 1 2.4 2.5 4.5 3.2 4.5 0.8 0 1.4 0.9 1.4 1.9 0 1 2 4.8 4.5 8.3 2.4 3.4 4.5 6.6 4.5 6.9 0 0.3 2.9 5.1 6.4 10.6 3.6 5.5 6.9 11.1 7.5 12.5 0.6 1.5 2 3.4 3.2 4.3 1.1 0.9 2 2.2 2 2.8 0 0.9 5.9 10.3 18.5 29.8 2.2 3.6 6.1 9.6 8.5 13.4 2.4 3.8 6.9 10.6 9.7 15 2.9 4.3 5.4 8.5 5.4 9.2 0 0.8 0.5 1.3 1 1.3 0.6 0 2 1.9 3.2 4.2 2.5 4.7 5.1 8.9 6.1 9.8 0.4 0.4 4.1 5.9 8.2 12.1 4.1 6.4 7.9 11.7 8.5 11.9 0.5 0.3 1 1 1 1.7 0 0.8 0.6 1.9 1.3 2.8 0.8 0.9 4.3 6.1 7.9 11.7 3.7 5.6 7.1 10.5 7.6 10.6 0.5 0.3 1 0.9 1 1.5 0 1.1 9.8 16.1 12.5 18.9 0.8 0.9 1.5 2.2 1.5 2.7 0 0.5 1 2 2.3 3.4 1.1 1.3 4.7 6.5 7.9 11.3 3.1 5 6.2 9.3 7 9.8 0.6 0.5 -50.1 1 -112.9 1 l-114.2 0 -14.7 -15.6z"/>
  <path d="M1429.4 2275.5 c1 -1.9 2.9 -4.6 4.5 -5.9 1.5 -1.4 2.7 -2.9 2.7 -3.6 0 -0.5 2 -4 4.5 -7.4 2.4 -3.4 4.5 -6.8 4.5 -7.1 0 -0.6 3.3 -5.2 8 -10.7 1.9 -2.2 4.2 -6 5.9 -9.8 0.6 -1.5 2 -3.2 2.9 -3.8 1.9 -1.3 4.2 -4.6 6.8 -10.2 1.1 -2.3 2.5 -4.2 3.2 -4.2 0.8 0 1.3 -0.5 1.3 -1.1 0 -0.8 4.3 -7.6 9.6 -15.4 5.2 -7.8 9.6 -14.7 9.6 -15.3 0 -0.5 0.4 -1.3 1 -1.5 1.1 -0.5 12.2 -17.5 13.4 -20.4 0.4 -1.3 1.3 -2.3 2 -2.3 0.6 0 1.4 -1 1.8 -2.2 0.5 -1.3 3.4 -6.2 6.6 -11.2 3.2 -4.8 6.2 -10.2 7 -11.7 0.6 -1.7 1.7 -2.9 2.3 -2.9 0.6 0 2.7 -3.2 4.6 -7 2 -3.8 4.3 -7.5 5.4 -8.4 1 -0.8 1.8 -2.2 1.8 -3.1 0 -0.8 1.1 -2.5 2.5 -3.8 1.4 -1.3 2.5 -2.8 2.5 -3.4 0 -0.6 3.8 -7 8.5 -14.1 8.4 -12.6 10.2 -15.7 14 -22.7 0.9 -1.9 2.5 -4.1 3.6 -5 1 -0.9 1.9 -2.2 1.9 -2.8 0 -0.6 1.9 -4.1 4.2 -7.8 2.3 -3.7 5.6 -9.3 7.3 -12.6 1.8 -3.4 3.6 -6.1 4.1 -6.1 0.4 0 1.7 -1.5 2.7 -3.4 4 -7.9 8.9 -16.4 11 -18.9 2.2 -2.7 3.2 -4.3 9.2 -15.7 2.2 -4 4.6 -8.2 5.5 -9.2 1.5 -2 2.8 -4.2 8.7 -15 2 -4 5.7 -10.1 8 -13.6 2.3 -3.4 4.6 -7.6 5.1 -9.2 0.4 -1.7 1.4 -2.9 2 -2.9 0.6 0 1.1 -0.8 1.1 -1.5 0 -0.9 1.1 -3.1 2.5 -4.8 1.4 -1.8 2.5 -4.2 2.5 -5.4 0 -1.3 0.6 -2.3 1.3 -2.3 0.8 0 1.9 -1.4 2.5 -3.2 0.6 -1.8 3.3 -6.4 5.7 -10.2 2.4 -4 4.5 -7.9 4.5 -8.9 0 -1 0.5 -1.9 1.1 -1.9 0.6 0 1.8 -1.8 2.5 -3.8 0.6 -2.2 2.2 -4.8 3.3 -5.9 1 -1 1.9 -3.1 1.9 -4.3 0 -1.3 0.6 -2.8 1.4 -3.3 0.8 -0.4 2.2 -2.7 3.2 -4.8 1 -2.2 2.9 -5.6 4.2 -7.8 4.6 -7.6 8.3 -14.1 12 -21.7 2.2 -4.2 4.2 -7.9 4.7 -8.3 0.4 -0.4 2.7 -4.3 4.8 -8.9 2.2 -4.6 4.6 -9.3 5.4 -10.5 6.1 -10.6 10.2 -18.7 10.2 -20.5 0 -1 0.9 -2.5 1.9 -3.4 1.8 -1.5 12.1 -21.8 12.1 -24 0 -0.5 1.1 -1.9 2.5 -3.2 1.4 -1.1 2.5 -3.2 2.5 -4.3 0 -1.3 1.1 -3.7 2.5 -5.5 1.4 -1.8 2.5 -3.8 2.5 -4.7 0 -0.8 2 -5 4.5 -9.3 2.4 -4.3 4.5 -8.4 4.5 -9.2 0 -0.6 1.1 -2.7 2.5 -4.5 1.4 -1.8 2.5 -4 2.5 -4.8 0 -0.8 1.4 -4.1 3.2 -7.1 3.4 -6.2 5 -9.2 8.8 -18 1.5 -3.4 3.1 -6.1 3.6 -6.1 0.6 0 1 -0.6 1 -1.3 0 -0.8 3.4 -8.7 7.8 -17.6 13.6 -28.4 25.5 -53.5 28.7 -60.8 2 -4.7 7.3 -15.8 10.2 -21.7 4.6 -8.8 5.6 -11.2 5.6 -12.4 0 -0.8 2 -5.6 4.5 -10.8 2.4 -5.2 4.5 -9.9 4.5 -10.6 0 -0.5 1.1 -3.2 2.4 -6 2.3 -4.5 4.2 -8.8 9.6 -21 1.1 -2.5 2 -5.4 2 -6.4 0 -0.9 1.1 -3.1 2.5 -4.8 1.4 -1.8 2.5 -4 2.5 -5 0 -0.9 1.1 -3.8 2.4 -6.4 1.4 -2.5 5.1 -11.5 8.4 -19.9 3.3 -8.4 7.4 -18.2 9 -21.9 1.7 -3.6 3.1 -7.4 3.1 -8.5 0 -1 0.5 -2.3 1.3 -2.7 0.6 -0.4 2 -3.4 3.1 -6.8 1.7 -5.5 7.1 -19.5 12 -30.7 0.9 -2.3 3.2 -8.3 5 -13.4 1.7 -5 3.8 -10.7 4.7 -12.9 1.5 -3.4 3.8 -9.4 9 -23.6 0.9 -2.4 2.8 -7.6 4.3 -11.5 1.4 -4 2.7 -7.6 2.7 -8.4 0 -0.6 1.1 -3.4 2.5 -6.2 1.4 -2.8 2.5 -6 2.5 -7.3 0 -1.1 0.8 -4.1 1.8 -6.4 1 -2.3 3.1 -7.6 4.6 -11.9 1.5 -4.2 3.8 -10.2 5.1 -13.4 1.3 -3.2 3.6 -10.2 5.1 -15.7 1.5 -5.6 3.6 -11.6 4.6 -13.4 1 -1.9 1.8 -4.6 1.8 -6 0 -1.4 0.9 -4.2 1.9 -6.2 1 -1.9 1.9 -4.6 1.9 -5.7 0 -1.3 1.1 -4.6 2.5 -7.5 1.4 -2.8 2.5 -6.5 2.5 -8.2 0 -1.7 1.1 -5.4 2.5 -8.3 1.3 -2.9 2.7 -7.3 3.1 -9.4 0.3 -2.2 1.1 -4.6 1.9 -5.4 0.8 -0.8 1.4 -2.7 1.4 -4.3 0 -1.5 1 -5.9 2.4 -9.6 4.3 -12.6 7.6 -23.3 8.4 -28.2 0.5 -2.5 1.4 -5.1 2 -5.5 0.6 -0.4 1.1 -2.2 1.1 -4.1 0 -1.9 1.1 -6 2.5 -9 1.4 -3.1 2.5 -6.8 2.5 -8.4 0 -1.5 0.9 -5.1 2 -7.8 1.1 -2.8 2.3 -6.6 2.7 -8.8 0.3 -2 1.3 -6.4 2.2 -9.6 2.3 -7.8 5 -17 5.4 -18.1 0.1 -0.6 0.3 -1.1 0.5 -1.3 0.1 -0.3 0.5 -2 0.8 -4.2 0.3 -2 1.4 -6.1 2.4 -8.9 1 -2.8 2.4 -7.6 3.1 -10.8 0.6 -3.2 1.5 -6.9 1.8 -8.3 0.4 -1.4 1.7 -6.9 2.8 -12.1 1.3 -5.2 2.5 -10.1 3.1 -10.8 0.5 -0.6 1 -2.9 1.3 -4.8 0.1 -1.9 2 -10.2 4.1 -18.5 2.2 -8.2 4.1 -17 4.5 -19.4 0.4 -2.4 1.5 -7.9 2.7 -12.1 1 -4.2 2.4 -11 3.1 -15 0.6 -4.1 1.7 -8.4 2.3 -9.6 0.6 -1.1 1.5 -5.6 2 -9.7 0.5 -4.2 1.4 -9 2.2 -10.8 0.6 -1.8 1.8 -6.8 2.4 -11 1.3 -8.5 1.7 -11.1 4.3 -24.9 1 -5.2 2.2 -11 2.4 -12.7 0.4 -1.8 0.6 -3.2 0.8 -3.2 0.4 0 0.9 -3.8 1.8 -12.5 0.5 -4.7 1.4 -10.1 2.2 -12 0.6 -1.9 1.8 -7.8 2.3 -13 0.6 -5.4 1.4 -11.1 1.9 -12.9 1.7 -7.8 3.2 -17.5 4 -26 0.4 -4.1 0.9 -7.9 1.3 -8.4 0.3 -0.4 0.9 -4.5 1.3 -9 1.3 -12.9 1.9 -17.7 3.8 -29.8 0.3 -2 1.1 -10.5 1.9 -18.5 1.3 -13.9 1.8 -18.5 3.1 -27.4 0.4 -2 0.8 -7.8 0.9 -12.7 0 -4.8 0.6 -13.3 1.1 -18.5 3.2 -28.8 3.8 -37.2 4.6 -60.5 0.5 -14 1 -28 1.1 -31.2 0.5 -7.8 0.5 -97 0.1 -105.8 -0.3 -3.8 -0.8 -15.3 -1.3 -25.5 -1.1 -26.6 -2.5 -42.1 -4.6 -55.4 -0.8 -4.2 -1.3 -9.2 -1.3 -11.1 l0 -3.6 205.2 0 205.2 0 -0.6 21.4 c-0.8 25.6 -2.4 53.9 -3.8 65.6 -0.4 3.4 -1 10.6 -1.3 15.9 -1.1 19.1 -1.9 29.1 -3.2 39.8 -0.6 6 -1.5 15.4 -1.9 21 -0.8 10.6 -1.5 18.1 -2.7 23.6 -0.8 4.1 -1.7 12.6 -2.3 22.3 -0.5 6.6 -1.7 15.7 -3.8 30.6 -0.4 2.2 -0.9 7 -1.3 10.8 -0.4 3.8 -1.1 10.2 -1.9 14 -0.6 3.8 -1.5 11.1 -1.9 15.9 -0.4 5 -1.3 11 -2 13.4 -0.8 2.4 -1.7 8.2 -2 12.7 -0.5 7.3 -1 9.9 -2.5 15.9 -1 4.2 -2.3 12.7 -3.7 24.2 -0.4 3.6 -1.3 8.4 -1.9 10.8 -0.5 2.4 -1.4 7 -1.8 10.2 -0.4 3.2 -1 7.1 -1.4 8.9 -0.5 1.8 -1.4 6.1 -2 9.6 -3.7 20.1 -5 27.3 -5.5 31.2 -1 7.8 -2.3 13.4 -3.2 14.7 -0.5 0.8 -1 3.1 -1.1 5.1 -0.3 3.6 -0.6 5.7 -2 11.7 -2 8.7 -3.4 15 -5.2 24 -1.1 5.6 -2.9 13.6 -4 17.8 -1 4.2 -2.4 10.2 -3.1 13.4 -0.5 3.2 -1.4 7.1 -1.9 8.9 -0.5 1.8 -1.7 7.1 -2.7 11.9 -0.9 4.7 -2.3 9.6 -2.9 10.8 -0.5 1.1 -1.4 5.2 -1.9 9 -0.5 3.8 -1.3 7.6 -1.8 8.3 -0.5 0.8 -0.9 1.7 -1 2 -1.1 6.5 -2.5 11.9 -4.1 15.9 -1 2.8 -2 7.4 -2.4 10.2 -0.4 2.8 -1.1 6.1 -1.8 7.3 -0.6 1.3 -1.8 5 -2.4 8.3 -0.8 3.4 -1.5 6.8 -1.7 7.4 -0.3 0.8 -1.1 3.8 -2 7 -0.9 3.2 -2.7 9.4 -4 14 -1.4 4.6 -3.3 11.7 -4.5 15.9 -1 4.2 -2.8 10.2 -4 13.4 -1 3.2 -2.3 7.6 -2.5 9.9 -0.4 2.3 -1.5 5.7 -2.5 7.6 -1 1.9 -1.8 4.8 -1.8 6.6 0 1.8 -0.9 4.8 -1.9 6.8 -1 1.9 -2.2 5.7 -2.7 8.3 -0.5 2.5 -1.3 5.4 -1.9 6.1 -1 1.3 -2.9 7.6 -6.4 20.9 -1.4 5.1 -2.5 8.7 -8.2 24.2 -0.9 2.4 -4.1 12.2 -7 21.7 -3.1 9.4 -6.5 19.5 -7.6 22.3 -1.9 4.3 -6.9 19.1 -7.1 21 0 0.4 -1 2.8 -2.2 5.6 -1.1 2.7 -2.2 5.2 -2.2 5.7 0 0.4 -1.3 3.8 -2.7 7.8 -1.5 3.8 -3.4 9 -4.3 11.5 -1 2.4 -2.2 5.6 -2.7 7 -0.5 1.4 -1 2.8 -1 3.2 -0.1 0.6 -2.3 6.4 -4.6 12.1 -0.5 1.4 -3.2 8.2 -5.7 15 -2.7 6.8 -5.2 12.7 -5.9 13.1 -0.6 0.4 -1.1 1.4 -1.1 2.4 0 1 -0.6 3.3 -1.5 5.4 -0.8 1.9 -1.7 5 -1.9 6.6 -0.3 1.8 -1.7 4.7 -3.1 6.6 -1.3 1.9 -2.4 4.2 -2.4 5.2 -0.1 0.9 -1.1 4 -2.5 6.8 -1.4 2.8 -2.4 5.9 -2.5 6.8 0 1 -0.8 3.3 -1.8 5.1 -1 1.9 -4.2 9.2 -7.1 16.2 -8 18.9 -8.4 19.8 -11.9 27.4 -1.7 3.8 -4 9.3 -4.8 12.1 -0.9 2.8 -2.7 6.6 -4 8.5 -1.3 1.8 -2.3 3.8 -2.3 4.5 0 0.5 -2 5 -4.5 9.8 -2.4 5 -4.5 9.6 -4.5 10.2 0 1.1 -6.4 14.9 -12.2 26.5 -1 1.8 -1.8 4 -1.8 4.8 0 0.8 -0.9 2.3 -1.9 3.3 -1 1.1 -2.3 3.4 -2.7 5.4 -0.5 1.9 -1.9 5 -3.2 6.8 -1.3 1.8 -2.7 4.7 -3.1 6.6 -0.5 1.9 -1.4 3.4 -1.9 3.4 -0.5 0 -1.4 1.9 -1.8 4.3 -0.5 2.4 -1.7 5 -2.7 5.9 -1 0.9 -1.9 2.2 -1.9 2.8 0 1.8 -11.6 25.1 -12.9 26 -0.6 0.4 -1.1 1.8 -1.1 3.1 0 1.3 -0.9 3.2 -1.9 4.3 -1 1 -1.9 2.3 -1.9 2.9 0 0.6 -1.8 4.5 -4 8.7 -2.2 4.2 -7.1 13.6 -11 21 -3.8 7.4 -8.3 15.9 -10.1 19 -1.7 3.1 -3.1 6.4 -3.1 7.4 0 0.9 -0.4 1.7 -1 1.7 -0.5 0 -1.9 2.2 -3.2 4.8 -1.3 2.5 -4.5 8.8 -7.3 13.6 -2.8 5 -6 10.8 -7.1 13.3 -1 2.4 -2.8 5.1 -3.8 6.1 -1 1 -1.8 2.7 -1.8 3.6 0 0.9 -0.8 2.5 -1.5 3.4 -1.8 1.9 -4.5 6.5 -10.1 17.5 -1.9 3.8 -4 7.3 -4.6 7.6 -0.5 0.4 -2.4 3.7 -4.2 7.1 -1.7 3.6 -3.4 6.6 -3.8 7 -0.4 0.4 -1.7 2.7 -2.9 5.1 -3.4 6.8 -6.5 12 -7.5 12.7 -1.1 0.9 -8 13 -10.6 18.9 -1.1 2.2 -2.4 4.1 -3.1 4.1 -0.5 0 -2.4 3.2 -4.1 7 -1.7 3.8 -3.4 7 -3.8 7 -0.8 0 -3.1 3.6 -12.1 19.2 -0.8 1.3 -2.2 3.4 -3.2 4.6 -1 1.3 -2.9 4.6 -4.3 7.4 -1.4 2.8 -3.6 6 -4.7 7.3 -1.3 1.3 -2.3 3.1 -2.3 4 -0.1 0.8 -1.8 3.6 -3.8 6 -2.2 2.4 -3.8 5.1 -3.8 5.9 0 0.9 -1.3 3.2 -2.9 5.2 -1.5 1.9 -3.7 5.1 -4.6 7.1 -1 1.9 -2.3 3.4 -2.9 3.4 -0.5 0 -1 0.6 -1 1.4 0 0.8 -1.4 3.2 -3.2 5.5 -1.8 2.3 -3.2 4.8 -3.2 5.6 0 0.9 -0.5 1.5 -1.3 1.5 -0.6 0 -1.3 0.5 -1.3 1.3 0 0.6 -2.8 5.2 -6.4 10.2 -3.4 5 -6.4 9.2 -6.4 9.6 0 0.3 -1.9 3.2 -4.1 6.4 -2.3 3.3 -4.8 6.9 -5.5 8 -3.8 6.2 -6.5 9.9 -7.9 10.8 -0.9 0.5 -1.7 1.5 -1.7 2.2 0 0.6 -1.8 3.7 -3.8 6.6 -5.9 8 -13.3 18.9 -14.7 21.3 -0.6 1.1 -2.9 4.5 -5.1 7.3 -2 2.7 -4.6 6.1 -5.5 7.5 -0.9 1.4 -2.8 4.5 -4.2 6.8 -1.5 2.2 -3.2 4.1 -3.8 4.1 -0.6 0 -1.1 0.6 -1.1 1.4 0 0.6 -2 4 -4.5 7.3 -2.3 3.3 -7.4 10.2 -11.1 15.3 -7 9.6 -21.7 29.1 -24 31.7 -0.6 0.9 -1.3 1.9 -1.3 2.3 0 0.4 -1 1.7 -2.2 3.1 -1.3 1.3 -7.8 9.7 -14.4 18.7 -6.6 9 -13.3 17.6 -14.7 19 -1.4 1.4 -4 4.7 -5.7 7.4 -1.8 2.5 -3.6 4.7 -4.1 4.7 -0.6 0 -1 0.8 -1 1.7 0 0.9 -2 3.6 -4.5 6 -2.4 2.4 -4.5 5 -4.5 5.5 0 0.9 -5.2 7.6 -12.1 15.7 -0.6 0.9 -2.9 3.7 -5.1 6.2 -2 2.7 -4.7 5.9 -5.7 7.1 -1 1.3 -3.6 4.5 -5.7 7.1 -2 2.5 -4.8 5.6 -6 6.6 -1.3 1.1 -2.3 2.4 -2.3 3.1 0 0.6 -0.8 1.8 -1.5 2.7 -0.9 0.9 -3.3 3.8 -5.5 6.5 -3.8 4.7 -9.9 11.7 -14.4 16.6 -1.4 1.4 -3.3 3.8 -4.3 5.5 -2.3 3.4 -14.4 17.3 -18.5 21.4 -1.7 1.5 -2.9 3.1 -2.9 3.4 0 0.4 -2 2.9 -4.5 5.6 -2.5 2.7 -5.9 6.5 -7.4 8.5 -2.7 3.4 -7 8.3 -15.8 17.7 -2.3 2.5 -4.2 4.7 -4.2 5.1 0 0.3 -2.4 3.1 -5.5 6.1 -2.9 3.1 -9 9.8 -13.6 15 -16.8 19 -21.9 24.6 -55.2 59.8 l-9.9 10.5 -113.4 0 -113.4 0 1.9 -3.6z"/>
 </g>
 <g fill="#fefefe">
  <path d="M957.3 1416.6 c-36.5 -2.9 -53.8 -5.2 -70.7 -9.7 -12.5 -3.2 -40.3 -12.4 -42.1 -13.8 -0.6 -0.5 -2.7 -1.4 -4.5 -1.9 -7.5 -2 -38.7 -17.7 -43.5 -21.8 -1 -1 -2.4 -1.8 -2.8 -1.8 -0.5 0 -3.8 -2 -7.3 -4.5 -3.4 -2.4 -6.6 -4.5 -6.9 -4.5 -0.5 0 -5.5 -4.1 -9.6 -7.8 -1.3 -1 -3.2 -2.3 -4.3 -2.8 -1.1 -0.4 -2.2 -1.4 -2.2 -2.2 0 -0.6 -0.9 -1.3 -1.9 -1.3 -0.9 0 -2.3 -0.8 -2.8 -1.7 -0.5 -0.9 -6.8 -6.6 -13.8 -12.9 -7 -6.2 -14.7 -13.5 -17.1 -15.9 -2.3 -2.5 -6.5 -6.9 -9.3 -9.8 l-5 -5.2 6.1 -4 c3.3 -2.2 7.3 -5 8.7 -6.2 2.3 -2.2 13 -10.8 17 -13.8 0.9 -0.6 2.7 -2.3 3.8 -3.4 1.1 -1.3 2.8 -2.3 3.7 -2.3 0.9 0 1.7 -0.5 1.7 -1 0 -0.5 3.1 -3.3 6.8 -6 3.6 -2.8 6.9 -5.5 7 -6 0.3 -0.6 1.3 -1 2.2 -1 0.9 0 1.9 -0.9 2.4 -1.9 0.4 -1 1.5 -1.9 2.7 -1.9 1 0 1.9 -0.5 1.9 -1.1 0 -0.9 37.2 -30.7 39.9 -31.9 0.5 -0.1 3.1 -2.3 5.6 -4.6 4.6 -4.2 4.7 -4.2 6.1 -1.5 0.8 1.5 2.9 5.2 4.8 8.2 1.9 3.1 3.4 6 3.4 6.8 0 0.6 0.8 1.3 1.7 1.3 0.8 0 2.9 2.2 4.7 4.8 4.5 6.6 27.5 29.4 34.4 34 3.2 2 6 4.1 6.4 4.5 2.7 2.8 28.3 16.6 30.8 16.6 0.9 0 3.8 1.1 6.5 2.5 2.5 1.4 6.1 2.5 8 2.5 1.8 0 4.5 0.6 5.9 1.4 3.2 1.7 17.5 3.6 32.2 4.2 8.5 0.5 30.6 -1.7 37.6 -3.4 1 -0.3 3.7 -1 5.7 -1.5 7 -1.9 26.1 -11.9 26.1 -13.6 0 -0.6 0.6 -1 1.4 -1 2 0 21.5 -20 21.5 -22.2 0 -1.1 0.5 -2 1 -2 0.6 0 1.9 -1.5 2.8 -3.4 1 -2 2.4 -4.3 3.1 -5.4 0.8 -0.9 1.4 -2.3 1.5 -3.2 0.8 -3.3 1.8 -6.9 3.7 -12.2 1.7 -4.5 2 -9.3 1.7 -22.3 -0.5 -15.7 -0.6 -17 -4.7 -25 -9 -18.1 -31.1 -35.2 -60 -46.4 -3.2 -1.3 -8 -3.3 -11 -4.6 -2.8 -1.4 -6 -2.4 -7 -2.4 -1.1 0 -4.3 -1.1 -7.3 -2.5 -2.8 -1.4 -6 -2.5 -6.9 -2.5 -0.9 0 -3.8 -0.8 -6.8 -1.8 -2.8 -1 -9.4 -3.1 -14.7 -4.6 -5.2 -1.5 -12.4 -3.8 -15.9 -5.1 -3.4 -1.3 -7.8 -2.7 -9.6 -2.9 -7.3 -1.5 -24.3 -7.1 -32.8 -10.7 -2.2 -0.9 -4.5 -1.7 -5.2 -1.7 -1.9 0 -25.1 -9.2 -31.1 -12.2 -1.8 -1 -4.2 -1.8 -5.2 -1.8 -1.1 0 -2.8 -0.8 -3.7 -1.8 -1 -0.9 -3.2 -2.2 -4.7 -2.7 -1.7 -0.5 -5.7 -2.5 -9 -4.5 -3.2 -1.9 -8 -4.5 -10.6 -5.7 -2.5 -1.1 -4.7 -2.7 -4.7 -3.3 0 -0.6 -0.8 -1.1 -1.7 -1.1 -2.9 0 -23.6 -16.6 -32.9 -26.5 -9.3 -9.8 -20.3 -24.6 -20.3 -27.1 0 -0.6 -1.1 -2.4 -2.5 -4 -1.4 -1.5 -2.5 -3.6 -2.5 -4.6 0 -1 -1.1 -4 -2.5 -6.5 -2.9 -5.6 -6.4 -15.8 -6.4 -19.4 0 -1.4 -0.6 -3.7 -1.4 -5.1 -2.2 -4.1 -2.7 -7 -4.5 -27.3 -1 -10.5 -1.5 -23.1 -1.1 -28 1.5 -19.4 3.1 -30.8 5 -36.2 1.1 -3.1 2 -6.5 2 -7.6 0 -1.1 0.9 -3.7 1.9 -5.7 1 -1.9 1.9 -4.5 1.9 -5.5 0 -2.5 15.4 -33.5 16.7 -33.5 0.6 0 2 -2 3.2 -4.5 1.1 -2.4 2.5 -4.5 3.2 -4.5 0.6 0 1.1 -0.9 1.1 -1.9 0 -1.1 0.9 -2.3 1.9 -2.7 1 -0.5 1.9 -1.3 1.9 -1.8 0 -2.5 19.2 -21.9 30 -30.2 12.7 -9.7 34.8 -23.3 37.9 -23.3 0.6 0 2.7 -1 4.5 -2.2 3.8 -2.5 6.5 -3.6 20.8 -8.5 18.6 -6.4 24.9 -8.3 30 -8.8 2.8 -0.4 8.3 -1.3 12.1 -2.2 13.4 -2.7 19.9 -3.1 52.3 -2.9 24.6 0.1 35.3 0.6 44 2.3 6.4 1.1 13.8 2.4 16.6 2.8 2.8 0.4 8 1.5 11.5 2.4 3.6 1 9.4 2.4 13.1 3.2 3.6 0.9 6.6 1.9 6.6 2.3 0 0.5 1.5 1 3.6 1.1 3.2 0.3 9.7 2.5 21.3 7.9 2.8 1.3 8.3 3.8 12.4 5.6 4 1.8 7.5 3.8 8 4.5 0.4 0.8 1.8 1.4 3.1 1.4 1.3 0 3.3 1.1 4.6 2.5 1.3 1.4 3.3 2.5 4.7 2.5 1.3 0 2.3 0.4 2.3 1 0 0.5 2 2 4.5 3.3 2.4 1.4 4.5 2.8 4.5 3.3 0 0.5 1 1.3 2.3 1.8 3.4 1.1 10.1 5.7 15.2 10.7 1.7 1.5 3.3 2.8 3.6 2.8 0.8 0 7.6 6.2 22.1 20 l12.4 11.7 -3.4 2.9 c-1.9 1.7 -6.9 5.5 -11.1 8.5 -4.3 3.1 -7.8 6 -7.8 6.6 0 0.6 -0.6 1.1 -1.4 1.1 -1.4 0 -16.8 11.5 -17.5 13.1 -0.3 0.5 -1.3 0.9 -2.2 0.9 -0.9 0 -1.9 0.9 -2.4 1.9 -0.4 1 -1.3 1.9 -2 1.9 -0.6 0 -6.9 4.5 -13.8 9.9 -6.9 5.4 -14.1 11 -16.1 12.4 -2 1.4 -4.3 3.3 -5.2 4.2 -1 0.8 -2 1.5 -2.4 1.5 -0.4 0 -1.8 0.9 -2.9 2 -5.6 5 -12.4 9.4 -13.6 9 -0.8 -0.3 -2.7 -2.4 -4.3 -4.8 -4.8 -7 -19.5 -22.4 -25.7 -26.9 -3.2 -2.3 -6.2 -4.6 -7 -5.2 -11 -9 -30 -17.1 -52.3 -22.2 -15.8 -3.6 -44.7 -3.2 -60.5 0.8 -12.1 2.9 -26.8 9 -30.8 12.7 -1.3 1.1 -4.7 4.1 -7.8 6.5 -5.2 4.3 -14.9 15.4 -14.9 17.2 0 0.5 -1 2.4 -2.3 4.2 -1.3 1.9 -3.6 7.6 -5.2 12.7 -2.5 7.8 -2.9 11.2 -2.4 21.7 0.5 12.7 2.8 19.8 9.2 28.8 3.8 5.6 15.8 17 21.8 21 2.8 1.8 5.4 3.6 5.7 4 0.4 0.5 6.4 3.6 13.4 6.9 18.5 8.8 17.7 8.5 38 15.8 4 1.5 10.3 3.8 14 5.1 3.6 1.4 10.1 3.4 14.3 4.7 4.2 1.3 10.3 3.3 13.6 4.6 3.3 1.4 6.9 2.4 7.9 2.4 1.1 0 4.5 1.1 7.4 2.4 3.1 1.4 10.5 4.1 16.6 5.9 6.1 1.8 11.5 3.8 11.9 4.6 0.5 0.6 2 1.1 3.6 1.1 1.5 0 4.7 1.1 7 2.5 2.3 1.4 5.2 2.5 6.5 2.5 1.4 0 4.1 0.8 6.1 1.8 1.9 1 8.2 4 13.8 6.5 5.6 2.5 11.6 5.5 13.4 6.5 1.8 1 5.4 2.8 8 3.8 2.5 1.1 4.7 2.5 4.7 3.2 0 0.6 1.1 1.1 2.5 1.1 1.4 0 2.5 0.5 2.5 1 0 0.6 1.9 2 4.2 3.2 4.5 2.3 8.8 5 9.8 6 0.4 0.4 4 3.2 8.2 6.2 8.4 6.2 28.8 26 28.8 27.9 0 0.6 0.9 1.5 1.9 2 1 0.4 1.9 1.5 1.9 2.7 0 1 0.5 1.9 1.1 1.9 0.6 0 2 2 3.2 4.5 1.1 2.4 2.7 4.5 3.2 4.5 0.6 0 1.8 1.5 2.5 3.6 0.8 1.9 1.9 4.3 2.4 5.4 6.5 11.2 14.5 34.3 16.2 46.5 4.6 32.2 4.7 45 1.1 66.9 -4.6 27.5 -7.9 38.2 -19 61.2 -5.5 11.5 -7.3 14.4 -11 19.2 -2 2.5 -3.7 5.2 -3.7 5.7 0 0.6 -1.8 3.2 -3.8 5.6 -2.2 2.4 -5.2 6.1 -6.8 8.2 -4.3 5.9 -28 28.8 -29.7 28.8 -0.9 0 -1.8 0.8 -2.2 1.8 -0.4 1 -3.4 3.4 -6.9 5.4 -3.3 2 -6.5 4.1 -6.9 4.6 -0.8 1.3 -11 6.8 -24.1 13.1 -5.2 2.5 -10.6 5.2 -11.7 5.9 -1.3 0.6 -3.2 1.1 -4.2 1.1 -1 0 -4.3 1 -7.4 2.4 -5.5 2.4 -17 6 -22.6 7 -1.8 0.3 -7.5 1.4 -12.7 2.5 -19.4 4 -54.2 6.5 -71.4 5.1z"/>
  <path d="M1227.2 1399.6 c1.7 -4.6 4.6 -13.1 6.6 -19.1 1.9 -6 5.5 -15.7 7.6 -21.7 2.2 -6 5.4 -14.8 7 -19.8 5.6 -16.4 8.4 -24.2 10.3 -28.3 0.9 -2.2 1.8 -4.6 1.8 -5.5 0 -0.9 0.8 -3.3 1.7 -5.5 1 -2.3 2.8 -6.9 4 -10.5 1.3 -3.4 5 -14.1 8.4 -23.6 3.3 -9.4 6.6 -18.6 7.3 -20.4 1.9 -4.8 4.3 -11.7 5.5 -15.9 1.3 -4.6 6 -17.6 8.3 -22.9 0.9 -2 2.8 -7.5 4.3 -12.1 1.4 -4.6 4.1 -12.2 5.9 -17.2 5 -13.4 7.5 -20.4 12 -33.8 2.3 -6.6 4.8 -13.8 5.9 -15.9 0.9 -2 2.7 -7 3.8 -10.8 1.3 -3.8 3.3 -9.4 4.6 -12.5 1.4 -2.9 2.4 -6.5 2.4 -7.8 0 -1.3 0.4 -2.7 0.9 -3.2 1 -1 6 -15 7.9 -21.8 0.5 -2.2 1.9 -5.9 2.9 -8.3 2.3 -5.4 4.8 -12.5 5.7 -15.9 0.6 -2.7 5.1 -14.9 6.9 -19.1 1.7 -3.7 6.2 -17.2 7.4 -21.7 0.5 -2 1.9 -5.6 3.1 -7.8 1.1 -2.2 2.3 -5.4 2.5 -7 0.4 -1.7 1.5 -5.1 2.5 -7.5 1 -2.4 3.2 -8.2 4.6 -12.7 3.7 -11.6 8.5 -24.9 9.8 -26.9 0.6 -1 1.3 -2.9 1.4 -4.3 0.3 -1.4 1.1 -4.6 2.2 -7 1.5 -4.2 2.3 -6 6 -16.8 0.9 -2.3 2 -5.6 2.8 -7.4 0.8 -1.8 2 -5.5 2.9 -8.3 1.7 -5.7 3.6 -11.2 6.9 -19.8 3.2 -8.3 5.2 -14.1 6.4 -18.5 0.5 -2 1.9 -5.5 3.1 -7.6 1.1 -2 2 -4.7 2 -5.7 0 -1 0.9 -3.6 2 -5.7 1.1 -2 2.5 -5.9 3.1 -8.3 1 -4.6 2.7 -9.4 6.4 -19.1 1.3 -3.2 2.8 -7.6 3.7 -9.8 3.3 -9.7 4.3 -12.6 5.5 -15 0.5 -1.4 1.8 -5.1 2.8 -8.3 1 -3.2 3.3 -9.7 5.2 -14.7 1.8 -4.8 3.8 -10.6 4.5 -12.7 0.5 -2 1.8 -5.6 2.7 -7.9 l1.7 -4.1 62.1 -0.1 62.1 0 2.7 5.5 c1.5 3.1 2.7 6.5 2.7 7.8 0 1.1 0.8 3.4 1.8 5 1 1.5 2.4 5.1 3.2 7.9 1.9 7.8 6.4 20.1 7.8 21.5 0.8 0.8 1.3 2.8 1.3 4.6 0 1.8 0.5 3.8 1.1 4.5 0.6 0.8 3.2 7.3 5.7 14.7 5.6 16.8 7.3 21.7 8.5 24.9 2.8 6.9 7.3 19.4 7.9 21.7 0.9 3.4 5.9 17 7.9 21.7 0.9 2.2 1.9 5.2 2.3 7 0.4 1.8 1.9 6.4 3.4 10.2 1.5 3.8 3.7 9.9 4.7 13.4 1 3.6 2.4 6.9 3.1 7.6 0.6 0.6 1.1 2.2 1.1 3.4 0 1.4 1.1 4.6 2.5 7.4 1.4 2.8 2.5 6 2.5 7.3 0 1.3 1.1 4.6 2.4 7.4 1.3 2.8 3.6 8.8 5 13.4 1.4 4.6 4.1 12.4 6 17.2 5.6 14.8 8.4 22.7 9.4 26.8 0.5 2.2 1.9 5.6 3.1 7.9 1.3 2.3 2.2 5 2.2 6.1 0 1.1 1.1 4.5 2.5 7.3 1.4 2.9 2.5 6.5 2.5 8 0 1.4 0.6 3.3 1.4 4.1 0.8 0.8 1.8 3.3 2.4 5.6 0.6 2.4 3.4 11 6.4 19 2.9 8 6 17 7 19.8 0.9 2.8 3.2 9.2 5.1 14 1.9 5 3.8 10.7 4.5 12.7 0.5 2.2 2.5 7.9 4.5 12.7 1.9 5 4.2 11.2 5.1 14 1 2.8 3.3 9.2 5.1 14 1.8 5 3.8 10.7 4.3 12.7 0.5 2.2 1.8 5.4 2.7 7 0.9 1.7 2.2 4.8 2.7 7 1.1 4.7 3.4 11.3 5.9 17.2 1.1 2.4 2.7 7 3.6 10.2 0.9 3.2 2.9 8.9 4.5 12.7 1.5 3.8 3.2 8.8 3.7 10.8 0.5 2.2 1.9 5.6 3.1 7.6 1 2.2 2.3 6 2.8 8.7 0.5 2.5 1.4 5.1 2 5.5 0.6 0.4 1.1 1.7 1.1 2.9 0 1.1 1.1 4.6 2.5 7.5 1.4 2.8 2.5 6.2 2.5 7.6 0 1.3 0.5 2.8 1.1 3.6 0.6 0.6 2 4.1 3.1 7.5 2.8 8.9 4.7 14.4 7.4 21 1.4 3.2 2.5 6.9 2.8 8.3 0.3 1.4 1 3.8 1.9 5.2 0.8 1.5 2.7 6.6 4.2 11.5 3.2 10.1 8 23.5 10.7 29.6 1 2.3 1.9 5 1.9 5.9 0 1 0.9 3.4 1.9 5.4 1 2 1.9 4.7 1.9 6 0 1.3 0.9 4.1 2 6.2 1 2 2.8 6.2 3.7 9.2 1 2.8 2.9 8.7 4.3 12.7 1.5 4.2 2.5 7.8 2.3 8 -0.3 0.3 -29.1 0.4 -64.1 0.5 -60.3 0 -63.6 -0.1 -64 -2.3 -0.3 -1.3 -1.1 -4 -2.2 -6.1 -0.9 -2 -2 -5.9 -2.5 -8.3 -0.5 -2.4 -1.4 -5.1 -1.9 -5.7 -1 -1.1 -10.1 -27.4 -14.9 -42.7 -1 -3.2 -2.9 -8.3 -4.1 -11.5 -3.7 -9.3 -5.5 -14.4 -6.5 -19.4 -0.5 -2.5 -1.9 -6.1 -3.1 -7.9 -1.1 -1.8 -2 -4.3 -2 -5.6 0 -1.3 -1 -3.3 -2.3 -4.5 -2.2 -2 -13 -2.2 -129.8 -2.2 -98 0.1 -127.8 0.4 -129.4 1.7 -1.1 0.9 -2.3 2.9 -2.7 4.7 -0.4 1.8 -2.5 8 -4.8 14 -2.3 6 -4.6 12.6 -5.1 14.7 -0.6 2.2 -2.5 7.9 -4.5 12.7 -1.8 5 -4 11.2 -4.7 14 -0.8 2.8 -2.2 6.2 -3.2 7.6 -0.9 1.4 -1.7 3.7 -1.7 5.1 0 1.4 -0.9 4.2 -1.9 6.2 -1 1.9 -1.9 4.6 -1.9 5.7 0 1.3 -1.1 4.6 -2.5 7.5 -1.4 2.8 -2.5 6 -2.5 6.9 0 0.9 -1.3 4.6 -2.8 8.3 l-2.8 6.8 -59.9 0.1 c-33 0 -61.8 0.1 -63.9 0.3 l-4 0.3 3.1 -8.3z m380.9 -231 c-0.4 -2.2 -1.7 -5.7 -2.7 -7.8 -1 -2.2 -1.9 -5.1 -1.9 -6.8 0 -1.7 -0.5 -3.3 -1.3 -3.7 -0.6 -0.4 -1.3 -1.9 -1.3 -3.3 0 -1.3 -0.5 -2.4 -1 -2.4 -0.5 0 -1.1 -1.4 -1.3 -3.2 -0.1 -1.8 -1.1 -5 -2.2 -7 -1 -2 -1.9 -4.7 -1.9 -6.1 0 -1.3 -0.6 -2.9 -1.5 -3.8 -0.9 -0.9 -1 -1.5 -0.5 -1.5 0.6 0 0.4 -0.8 -0.4 -1.8 -0.8 -0.9 -2.3 -4.6 -3.2 -7.9 -1 -3.4 -3.1 -9.4 -4.6 -13.3 -1.5 -3.8 -3.2 -8.7 -3.8 -10.8 -0.5 -2 -1.7 -5.5 -2.5 -7.6 -1.9 -4.5 -1.8 -3.8 -3.1 -9.6 -0.6 -2.4 -1.4 -5 -1.8 -5.7 -0.9 -1.4 -7.6 -20.4 -7.9 -22.1 -0.5 -3.7 -1.8 -6.6 -2.7 -6.6 -0.6 0 -1.1 -1 -1.1 -2.3 0 -2.2 -4.1 -15 -6.4 -20 -0.6 -1.4 -3.6 -9.9 -6.5 -19.1 -2.9 -9 -6.1 -18.2 -7 -20.4 -0.9 -2 -2.3 -6.4 -3.1 -9.6 -0.9 -3.2 -1.9 -6.2 -2.4 -7 -0.5 -0.6 -2.3 -5.6 -3.8 -10.8 -1.5 -5.2 -3.8 -11.6 -5 -14 -1.1 -2.4 -2.4 -6.1 -2.8 -8 -0.4 -1.9 -1.1 -3.6 -1.9 -3.7 -1.1 -0.1 -9.7 22.6 -12.1 32.1 -0.5 2.4 -2.5 8.5 -4.3 13.4 -1.9 5 -4.8 13.5 -6.6 19.1 -1.8 5.6 -3.7 11.3 -4.3 12.7 -3.4 9 -6.4 17.2 -7.6 21.7 -0.9 2.8 -2 5.7 -2.5 6.4 -0.9 1.1 -3.4 9.4 -6.4 20.8 -0.5 2.3 -1.7 5 -2.5 6 -0.9 1 -2 3.7 -2.5 6 -1.1 4.7 -4.6 14.9 -7.3 21 -0.9 2.2 -1.7 4.8 -1.7 6 0 1.3 -1.1 4.6 -2.5 7.4 -1.4 2.9 -2.5 6.1 -2.5 7 0 0.9 -0.8 3.4 -1.8 5.7 -2.9 7 -6.1 16.7 -7.4 22.4 -0.6 2.9 -1.7 5.4 -2.3 5.4 -0.5 0 -1.8 3.1 -2.7 6.8 -0.8 3.6 -2 7.5 -2.5 8.5 -1.4 2.8 -5.1 14.1 -5.9 18.2 l-0.6 3.4 86.3 0 86.4 0 -0.9 -4.1z"/>
 </g>
</svg>