<?xml version="1.0" encoding="utf-8"?>
<!-- Generator: Adobe Illustrator 23.0.6, SVG Export Plug-In . SVG Version: 6.00 Build 0)  -->
<svg version="1.1" id="Layer_1" xmlns="http://www.w3.org/2000/svg" xmlns:xlink="http://www.w3.org/1999/xlink" x="0px" y="0px"
	 viewBox="0 0 600 600" style="enable-background:new 0 0 600 600;" xml:space="preserve">
<style type="text/css">
	.st0{fill:#F9ED37;}
	.st1{fill:none;}
	.st2{fill:#FFFFFF;}
	.st3{font-family:'Gibson-SemiBold';}
	.st4{font-size:180.3267px;}
	.st5{letter-spacing:9;}
</style>
<path class="st0" d="M270.56,483.62C134.61,287.25,138.58,148.51,143.31,109.31H59.94c6.63,171.49,88.8,295.68,164.13,374.31H270.56
	z"/>
<path class="st0" d="M330.71,483.62c135.94-196.38,131.98-335.11,127.25-374.31h83.37c-6.63,171.49-88.8,295.68-164.13,374.31
	H330.71z"/>
<rect x="183.17" y="186.71" class="st1" width="454.75" height="355.58"/>
<text transform="matrix(1 0 0 1 183.1688 311.1283)" class="st2 st3 st4 st5">SA </text>
<g>
	<g>
		<path class="st2" d="M105.06,541.84c1.26,5.58,4.98,8.88,11.88,8.88c7.68,0,10.62-3.84,10.62-8.4c0-4.74-2.1-7.68-11.34-9.96
			c-8.88-2.22-12.72-5.1-12.72-11.16c0-5.52,4.02-10.68,13.02-10.68c9.24,0,13.14,5.64,13.68,10.74h-3.36
			c-0.96-4.5-3.9-7.74-10.5-7.74c-6.06,0-9.36,2.82-9.36,7.5c0,4.62,2.76,6.42,10.5,8.34c11.82,2.94,13.56,7.68,13.56,12.72
			c0,6.18-4.5,11.52-14.22,11.52c-10.5,0-14.34-6.12-15.12-11.76H105.06z"/>
		<path class="st2" d="M175.26,531.82c0,11.46-6.12,21.9-19.08,21.9c-11.82,0-18.72-9.54-18.72-21.6c0-11.88,6.66-21.6,19.14-21.6
			C168.12,510.53,175.26,519.58,175.26,531.82z M140.94,531.94c0,9.66,5.34,18.78,15.42,18.78c10.86,0,15.42-8.88,15.42-18.84
			c0-9.78-5.16-18.36-15.3-18.36C145.68,513.53,140.94,522.46,140.94,531.94z"/>
		<path class="st2" d="M187.62,511.12v25.44c0,11.16,6.3,14.04,12.24,14.04c7.02,0,12.24-2.94,12.24-14.04v-25.44h3.3v25.26
			c0,13.14-6.96,17.22-15.66,17.22c-8.28,0-15.48-4.5-15.48-16.68v-25.8H187.62z"/>
		<path class="st2" d="M226.92,553.12v-42h4.8c6.54,10.08,21.9,33.54,24.54,38.1h0.06c-0.36-6.06-0.3-12.24-0.3-19.08v-19.02h3.3v42
			h-4.44c-6.24-9.72-21.84-34.14-24.84-38.76h-0.06c0.3,5.52,0.24,11.64,0.24,19.26v19.5H226.92z"/>
		<path class="st2" d="M271.08,511.12h13.92c11.52,0,19.5,8.04,19.5,20.64c0,12.54-7.8,21.36-19.56,21.36h-13.86V511.12z
			 M274.31,550.12h10.14c11.1,0,16.56-7.8,16.56-18.18c0-9.24-4.92-17.82-16.56-17.82h-10.14V550.12z"/>
		<path class="st2" d="M333.65,538.6l-5.34,14.52h-3.3l15.42-42h3.84l16.08,42h-3.54l-5.46-14.52H333.65z M350.27,535.6
			c-4.68-12.48-7.08-18.48-7.92-21.3h-0.06c-1.02,3.18-3.72,10.62-7.5,21.3H350.27z"/>
		<path class="st2" d="M371.09,533.5v19.62h-3.3v-42h15.06c8.28,0,12.66,4.44,12.66,11.04c0,5.34-3.18,8.82-7.86,9.84
			c4.32,1.02,7.2,3.84,7.2,10.98v1.62c0,2.94-0.24,6.9,0.54,8.52h-3.3c-0.78-1.8-0.6-5.16-0.6-8.76v-1.08
			c0-6.9-2.04-9.78-10.08-9.78H371.09z M371.09,530.5h10.14c7.38,0,10.8-2.76,10.8-8.28c0-5.16-3.36-8.1-9.9-8.1h-11.04V530.5z"/>
		<path class="st2" d="M430.13,532.48h-21.42v17.64h23.46l-0.48,3h-26.22v-42h25.74v3h-22.5v15.36h21.42V532.48z"/>
		<path class="st2" d="M440.45,553.12v-42h4.8c6.54,10.08,21.9,33.54,24.54,38.1h0.06c-0.36-6.06-0.3-12.24-0.3-19.08v-19.02h3.3v42
			h-4.44c-6.24-9.72-21.84-34.14-24.84-38.76h-0.06c0.3,5.52,0.24,11.64,0.24,19.26v19.5H440.45z"/>
		<path class="st2" d="M488.93,538.6l-5.34,14.52h-3.3l15.42-42h3.84l16.08,42h-3.54l-5.46-14.52H488.93z M505.55,535.6
			c-4.68-12.48-7.08-18.48-7.92-21.3h-0.06c-1.02,3.18-3.72,10.62-7.5,21.3H505.55z"/>
	</g>
</g>
</svg>
