<svg id="Layer_1" data-name="Layer 1" xmlns="http://www.w3.org/2000/svg" viewBox="0 0 1035.91 1008.19"><defs><style>.cls-1{fill:#231f20;stroke:#231f20;stroke-miterlimit:10;}.cls-2{fill:#a7a9ac;}.cls-3{font-size:322.7px;font-family:Gibson-Regular, Gibson;letter-spacing:0.04em;}.cls-3,.cls-5{fill:#fff;}.cls-4{letter-spacing:0.05em;}</style></defs><title>SA_silver</title><rect class="cls-1" x="-30.93" width="1034.91" height="1007.19" transform="translate(1004.48 1007.69) rotate(-180)"/><path class="cls-2" d="M738.49,93.43s115.2,294.48-176.9,744.29c0,0,358.84-281.54,296.67-744.29Z" transform="translate(31.43 0.5)"/><path class="cls-2" d="M214,92.3S98.82,386.78,390.92,836.59c0,0-358.84-281.54-296.67-744.29Z" transform="translate(31.43 0.5)"/><text class="cls-3" transform="translate(309.23 511.89)">S<tspan class="cls-4" x="183.62" y="0">A </tspan></text><path class="cls-5" d="M142,933.19c2.2,9.74,8.7,15.51,20.74,15.51,13.41,0,18.55-6.71,18.55-14.67,0-8.28-3.67-13.41-19.8-17.39-15.51-3.88-22.21-8.91-22.21-19.49,0-9.64,7-18.65,22.73-18.65,16.14,0,22.95,9.85,23.89,18.76h-5.87c-1.68-7.86-6.81-13.52-18.33-13.52-10.58,0-16.35,4.93-16.35,13.1s4.82,11.21,18.34,14.56c20.64,5.13,23.67,13.41,23.67,22.21,0,10.79-7.85,20.11-24.83,20.11-18.33,0-25-10.68-26.4-20.53Z" transform="translate(31.43 0.5)"/><path class="cls-5" d="M265.35,915.69c0,20-10.68,38.24-33.31,38.24-20.64,0-32.69-16.65-32.69-37.71,0-20.75,11.63-37.72,33.42-37.72C252.89,878.5,265.35,894.32,265.35,915.69Zm-59.92.21c0,16.87,9.32,32.8,26.92,32.8,19,0,26.93-15.51,26.93-32.9,0-17.08-9-32.06-26.72-32.06C213.7,883.74,205.43,899.35,205.43,915.9Z" transform="translate(31.43 0.5)"/><path class="cls-5" d="M287.46,879.55V924c0,19.49,11,24.52,21.37,24.52,12.26,0,21.38-5.14,21.38-24.52V879.55H336v44.11c0,22.94-12.15,30.06-27.35,30.06-14.45,0-27-7.85-27-29.12V879.55Z" transform="translate(31.43 0.5)"/><path class="cls-5" d="M356.51,952.89V879.55h8.38c11.42,17.6,38.24,58.56,42.85,66.53h.1c-.63-10.58-.52-21.38-.52-33.32V879.55h5.76v73.34h-7.75c-10.9-17-38.14-59.62-43.38-67.68h-.1c.52,9.64.42,20.32.42,33.63v34Z" transform="translate(31.43 0.5)"/><path class="cls-5" d="M434.67,879.55H459c20.12,0,34,14,34,36s-13.62,37.3-34.15,37.3h-24.2Zm5.65,68.1H458C477.41,947.65,487,934,487,915.9c0-16.13-8.6-31.11-28.92-31.11H440.32Z" transform="translate(31.43 0.5)"/><path class="cls-5" d="M543.94,927.53l-9.32,25.36h-5.76l26.92-73.34h6.71l28.08,73.34h-6.19l-9.53-25.36Zm29-5.24C564.79,900.5,560.6,890,559.14,885.1H559c-1.78,5.56-6.49,18.55-13.1,37.19Z" transform="translate(31.43 0.5)"/><path class="cls-5" d="M609.32,918.63v34.26h-5.76V879.55h26.3c14.45,0,22.1,7.75,22.1,19.28,0,9.32-5.55,15.4-13.72,17.18,7.54,1.78,12.57,6.7,12.57,19.17V938c0,5.13-.42,12,.94,14.88H646c-1.36-3.15-1-9-1-15.3v-1.88c0-12.05-3.56-17.08-17.6-17.08Zm0-5.24H627c12.88,0,18.86-4.82,18.86-14.46,0-9-5.87-14.14-17.29-14.14H609.32Z" transform="translate(31.43 0.5)"/><path class="cls-5" d="M712.94,916.85h-37.4v30.8h41l-.84,5.24H669.88V879.55h45v5.24H675.54v26.82h37.4Z" transform="translate(31.43 0.5)"/><path class="cls-5" d="M731,952.89V879.55h8.38c11.42,17.6,38.24,58.56,42.85,66.53h.11c-.63-10.58-.53-21.38-.53-33.32V879.55h5.77v73.34h-7.76c-10.89-17-38.13-59.62-43.37-67.68h-.1c.52,9.64.41,20.32.41,33.63v34Z" transform="translate(31.43 0.5)"/><path class="cls-5" d="M815.93,927.53l-9.32,25.36h-5.77l26.93-73.34h6.71l28.07,73.34h-6.18l-9.53-25.36Zm29-5.24c-8.17-21.79-12.36-32.26-13.83-37.19H831c-1.78,5.56-6.5,18.55-13.1,37.19Z" transform="translate(31.43 0.5)"/></svg>